<svg width="47" height="44" viewBox="0 0 47 44" fill="none" xmlns="http://www.w3.org/2000/svg">
<path d="M23.5 0C10.521 0 0 9.84944 0 22C0 34.1506 10.521 44 23.5 44C36.479 44 47 34.1506 47 22C47 9.84944 36.479 0 23.5 0ZM31.2976 31.7226C30.9281 32.0668 30.5405 32.4278 30.2259 32.7232C29.9426 32.9894 29.7427 33.3176 29.6413 33.6733C29.4982 34.1754 29.3826 34.6828 29.1893 35.1698L27.5414 39.3259C26.2376 39.592 24.8882 39.7419 23.5 39.7419V37.3131C23.6601 36.1935 22.776 34.0965 21.3556 32.7667C20.7871 32.2344 20.4677 31.5123 20.4677 30.7592V27.9196C20.4677 26.887 19.8736 25.9378 18.908 25.4384C17.5464 24.7331 15.6095 23.7476 14.2829 23.1222C13.1951 22.6094 12.1887 21.9565 11.2838 21.1927L11.208 21.1289C10.5608 20.582 9.98628 19.9643 9.49665 19.289C8.60782 18.0675 7.15992 16.0582 6.21897 14.7524C8.15867 10.7161 11.6543 7.47468 15.998 5.71379L18.2731 6.77919C19.2814 7.25113 20.4677 6.5654 20.4677 5.50976V4.50734C21.2249 4.3929 21.9952 4.32016 22.7789 4.29266L25.4605 6.80315C26.0528 7.35758 26.0528 8.25621 25.4605 8.81064L25.0161 9.22581L24.0363 10.1431C23.7407 10.4198 23.7407 10.8696 24.0363 11.1464L24.4807 11.5624C24.7764 11.8392 24.7764 12.289 24.4807 12.5657L23.7227 13.2754C23.5803 13.4084 23.3874 13.4831 23.1864 13.483H22.3345C22.1374 13.483 21.9479 13.5548 21.8057 13.6844L20.8657 14.5404C20.7505 14.6454 20.6739 14.782 20.647 14.9305C20.6201 15.0789 20.6443 15.2315 20.716 15.3663L22.1933 18.1331C22.4453 18.6051 22.0786 19.1604 21.5158 19.1604H20.9813C20.7984 19.1604 20.6222 19.0983 20.4848 18.9865L19.6054 18.2715C19.4065 18.1099 19.166 17.9996 18.9076 17.9514C18.6492 17.9031 18.3819 17.9187 18.132 17.9965L15.1783 18.9182C14.9528 18.9886 14.7567 19.1237 14.6178 19.3042C14.4788 19.4848 14.4041 19.7017 14.4042 19.9242C14.4042 20.326 14.6468 20.6924 15.0305 20.8725L16.0804 21.364C16.9721 21.7818 17.9557 21.9991 18.9526 21.9991C19.9494 21.9991 21.0931 24.42 21.9848 24.8378H28.3099C29.1144 24.8378 29.8848 25.1368 30.4543 25.669L31.7515 26.8835C32.2935 27.391 32.5979 28.0793 32.5977 28.7969C32.5975 29.3407 32.4826 29.8791 32.2595 30.3812C32.0364 30.8833 31.7095 31.3391 31.2976 31.7226ZM39.5141 23.619C38.9655 23.4903 38.4869 23.1754 38.1733 22.7345L36.4695 20.342C36.2202 19.9925 36.0872 19.5816 36.0872 19.1613C36.0872 18.741 36.2202 18.3301 36.4695 17.9806L38.3258 15.3743C38.5457 15.0665 38.847 14.8163 39.2014 14.6513L40.4314 14.0756C41.7125 16.4636 42.4516 19.1498 42.4516 22C42.4516 22.7691 42.3815 23.5223 42.2792 24.2656L39.5141 23.619Z" fill="black"/>
<path d="M27.5463 39.3498L27.5593 39.3472L27.5641 39.3349L29.212 35.1788C29.356 34.816 29.4572 34.4414 29.5581 34.0677C29.5931 33.9382 29.6281 33.8088 29.6647 33.68C29.7649 33.3286 29.9625 33.0042 30.2426 32.741C30.5572 32.4457 30.9447 32.0846 31.3143 31.7404C31.7285 31.3548 32.0573 30.8963 32.2818 30.3911C32.5063 29.8859 32.6219 29.3442 32.6221 28.7969C32.6223 28.0723 32.3149 27.3776 31.7682 26.8656L31.7515 26.8835L31.7682 26.8656L30.471 25.6512L30.471 25.6512C29.8968 25.1146 29.1204 24.8134 28.3099 24.8134H21.9903C21.7738 24.7103 21.5397 24.4855 21.2935 24.202C21.1158 23.9974 20.9333 23.7642 20.7478 23.5271C20.6747 23.4337 20.6012 23.3397 20.5273 23.2466C20.2662 22.9178 20.0008 22.6007 19.7378 22.3657C19.4754 22.1313 19.2112 21.9747 18.9526 21.9747C17.9592 21.9747 16.9792 21.7581 16.0908 21.3418L16.0812 21.3624L16.0908 21.3418L15.0409 20.8504C14.6651 20.674 14.4286 20.3159 14.4286 19.9242C14.4285 19.7072 14.5014 19.4955 14.6371 19.3191C14.7729 19.1427 14.9647 19.0105 15.1856 18.9415L18.1392 18.0198C18.3854 17.9432 18.6487 17.9279 18.9031 17.9754C19.1576 18.0229 19.3943 18.1315 19.5901 18.2905L20.4694 19.0055C20.6113 19.1209 20.793 19.1848 20.9813 19.1848H21.5158C22.0943 19.1848 22.4768 18.6122 22.2148 18.1216L20.7376 15.3548C20.6684 15.2249 20.6451 15.0778 20.671 14.9348C20.6969 14.7919 20.7708 14.66 20.8822 14.5585L21.8222 13.7024L21.8074 13.6862L21.8222 13.7024C21.9597 13.5771 22.1433 13.5074 22.3345 13.5074H23.1863C23.3934 13.5075 23.5923 13.4306 23.7393 13.2932L23.7394 13.2932L24.4974 12.5835C24.8034 12.2971 24.8034 11.831 24.4974 11.5446L24.053 11.1285C23.7677 10.8614 23.7677 10.428 24.053 10.1609L25.0328 9.24365L25.0328 9.24363L25.4772 8.82849L25.4772 8.82847C26.0798 8.26439 26.0798 7.34941 25.4772 6.78532L22.7956 4.27484L22.7882 4.26791L22.778 4.26826C21.9934 4.2958 21.2221 4.36863 20.4641 4.4832L20.4433 4.48634V4.50734V5.50976C20.4433 6.545 19.2779 7.22254 18.2835 6.75708L16.0084 5.69168L15.9987 5.68716L15.9888 5.69116C11.6397 7.45423 8.13941 10.6998 6.19697 14.7418L6.19068 14.7549L6.19916 14.7667C7.14009 16.0725 8.58801 18.0818 9.47689 19.3034C9.96769 19.9802 10.5436 20.5994 11.1922 21.1475L11.1923 21.1475L11.268 21.2114C12.1746 21.9765 13.1827 22.6306 14.2725 23.1443C15.5986 23.7695 17.5352 24.7548 18.8968 25.4601L18.9073 25.4397L18.8968 25.4601C19.8548 25.9556 20.4433 26.8967 20.4433 27.9196V30.7592C20.4433 31.5193 20.7656 32.2478 21.3389 32.7845C22.0465 33.4469 22.6209 34.3009 22.9983 35.1288C23.3761 35.9576 23.5549 36.7566 23.4758 37.3096L23.4756 37.3096V37.3131V39.7419V39.7663H23.5C24.89 39.7663 26.241 39.6162 27.5463 39.3498ZM38.306 15.3601L38.306 15.3601L36.4497 17.9664C36.1975 18.32 36.0628 18.7358 36.0628 19.1613C36.0628 19.5868 36.1975 20.0026 36.4496 20.3562L38.1534 22.7487C38.4707 23.1946 38.9544 23.5128 39.5085 23.6427L42.2736 24.2894L42.2997 24.2955L42.3033 24.269C42.4058 23.5249 42.476 22.7706 42.476 22C42.476 19.1455 41.7358 16.4554 40.4529 14.064L40.442 14.0437L40.421 14.0535L39.1911 14.6292C38.833 14.7959 38.5283 15.0488 38.306 15.3601ZM0.0244141 22C0.0244141 9.86441 10.5329 0.0244141 23.5 0.0244141C36.4671 0.0244141 46.9756 9.86441 46.9756 22C46.9756 34.1356 36.4671 43.9756 23.5 43.9756C10.5329 43.9756 0.0244141 34.1356 0.0244141 22Z" stroke="#3F3E3E" stroke-opacity="0.8" stroke-width="0.0488281"/>
</svg>

