<svg width="61" height="63" viewBox="0 0 61 63" fill="none" xmlns="http://www.w3.org/2000/svg">
<path d="M59.3661 59.0625H56.6429V2.95312C56.6429 1.32214 55.1798 0 53.375 0H7.625C5.82019 0 4.35714 1.32214 4.35714 2.95312V59.0625H1.63393C0.731592 59.0625 0 59.7236 0 60.5391V63H61V60.5391C61 59.7236 60.2684 59.0625 59.3661 59.0625ZM17.4286 9.35156C17.4286 8.53613 18.1602 7.875 19.0625 7.875H24.5089C25.4113 7.875 26.1429 8.53613 26.1429 9.35156V14.2734C26.1429 15.0889 25.4113 15.75 24.5089 15.75H19.0625C18.1602 15.75 17.4286 15.0889 17.4286 14.2734V9.35156ZM17.4286 21.1641C17.4286 20.3486 18.1602 19.6875 19.0625 19.6875H24.5089C25.4113 19.6875 26.1429 20.3486 26.1429 21.1641V26.0859C26.1429 26.9014 25.4113 27.5625 24.5089 27.5625H19.0625C18.1602 27.5625 17.4286 26.9014 17.4286 26.0859V21.1641ZM24.5089 39.375H19.0625C18.1602 39.375 17.4286 38.7139 17.4286 37.8984V32.9766C17.4286 32.1611 18.1602 31.5 19.0625 31.5H24.5089C25.4113 31.5 26.1429 32.1611 26.1429 32.9766V37.8984C26.1429 38.7139 25.4113 39.375 24.5089 39.375ZM34.8571 59.0625H26.1429V48.7266C26.1429 47.9111 26.8744 47.25 27.7768 47.25H33.2232C34.1256 47.25 34.8571 47.9111 34.8571 48.7266V59.0625ZM43.5714 37.8984C43.5714 38.7139 42.8398 39.375 41.9375 39.375H36.4911C35.5887 39.375 34.8571 38.7139 34.8571 37.8984V32.9766C34.8571 32.1611 35.5887 31.5 36.4911 31.5H41.9375C42.8398 31.5 43.5714 32.1611 43.5714 32.9766V37.8984ZM43.5714 26.0859C43.5714 26.9014 42.8398 27.5625 41.9375 27.5625H36.4911C35.5887 27.5625 34.8571 26.9014 34.8571 26.0859V21.1641C34.8571 20.3486 35.5887 19.6875 36.4911 19.6875H41.9375C42.8398 19.6875 43.5714 20.3486 43.5714 21.1641V26.0859ZM43.5714 14.2734C43.5714 15.0889 42.8398 15.75 41.9375 15.75H36.4911C35.5887 15.75 34.8571 15.0889 34.8571 14.2734V9.35156C34.8571 8.53613 35.5887 7.875 36.4911 7.875H41.9375C42.8398 7.875 43.5714 8.53613 43.5714 9.35156V14.2734Z" fill="#C5BCBC"/>
</svg>
