<svg width="47" height="44" viewBox="0 0 47 44" fill="none" xmlns="http://www.w3.org/2000/svg">
<path d="M13.0556 38.5C10.9667 38.5 8.87778 36.575 7.83333 35.75C2.61111 31.9 1.04444 30.525 0 29.7V41.25C0 42.7685 1.16929 44 2.61111 44H23.5C24.9418 44 26.1111 42.7685 26.1111 41.25V29.7C25.0667 30.525 23.5 31.9 18.2778 35.75C17.2333 36.575 15.1444 38.5 13.0556 38.5ZM23.5 22H2.61111C1.16929 22 0 23.2315 0 24.75V26.125C2.08889 27.775 1.82778 27.775 9.4 33.55C10.1833 34.1 11.75 35.75 13.0556 35.75C14.3611 35.75 15.9278 34.1 16.7111 33.825C24.2833 28.05 24.0222 28.05 26.1111 26.4V24.75C26.1111 23.2315 24.9418 22 23.5 22ZM44.3889 13.75H18.2778C16.836 13.75 15.6667 14.9815 15.6667 16.5V19.25H23.5C26.2098 19.25 28.444 21.4345 28.6986 24.2189L28.7222 24.2V35.75H44.3889C45.8307 35.75 47 34.5185 47 33V16.5C47 14.9815 45.8307 13.75 44.3889 13.75ZM41.7778 24.75H36.5556V19.25H41.7778V24.75ZM13.0556 16.5C13.0556 13.4673 15.3982 11 18.2778 11H36.5556V2.75C36.5556 1.23148 35.3863 0 33.9444 0H7.83333C6.39151 0 5.22222 1.23148 5.22222 2.75V19.25H13.0556V16.5Z" fill="black"/>
<path d="M28.7164 24.1769C28.4432 21.4015 26.2091 19.2283 23.5 19.2283H15.6884V16.5C15.6884 14.9924 16.849 13.7717 18.2778 13.7717H44.3889C45.8177 13.7717 46.9783 14.9924 46.9783 16.5V33C46.9783 34.5076 45.8177 35.7283 44.3889 35.7283H28.7439V24.2V24.1549L28.7164 24.1769ZM41.7778 24.7717H41.7995V24.75V19.25V19.2283H41.7778H36.5556H36.5339V19.25V24.75V24.7717H36.5556H41.7778ZM0.700697 30.2932C1.80355 31.1908 3.64213 32.6871 7.82017 35.7673C7.93844 35.8607 8.0703 35.9684 8.21418 36.0859C8.70425 36.4862 9.33381 37.0004 10.0411 37.4527C10.9561 38.0378 12.0049 38.5217 13.0556 38.5217C14.1062 38.5217 15.155 38.0378 16.07 37.4527C16.7773 37.0004 17.4069 36.4862 17.8969 36.0859C18.0408 35.9684 18.1727 35.8607 18.2909 35.7673C22.469 32.687 24.3076 31.1907 25.4104 30.2932C25.6707 30.0814 25.89 29.9029 26.0894 29.7448V41.25C26.0894 42.7576 24.9288 43.9783 23.5 43.9783H2.61111C1.18232 43.9783 0.0217014 42.7576 0.0217014 41.25V29.7448C0.221109 29.9029 0.440414 30.0814 0.700697 30.2932ZM2.61111 22.0217H23.5C24.9288 22.0217 26.0894 23.2424 26.0894 24.75V26.3895C25.4857 26.8665 25.0783 27.2057 24.6195 27.5877C23.497 28.5223 22.0668 29.7131 16.7007 33.8057C16.5022 33.8761 16.2563 34.0318 15.9806 34.224C15.8614 34.3071 15.7369 34.3968 15.6078 34.4898C15.435 34.6143 15.2541 34.7446 15.0669 34.8727C14.7409 35.0959 14.3993 35.31 14.0582 35.4682C13.717 35.6265 13.3776 35.7283 13.0556 35.7283C12.4105 35.7283 11.6976 35.32 11.0448 34.8388C10.719 34.5986 10.4094 34.3412 10.132 34.1091L10.0886 34.0729C9.8294 33.856 9.59918 33.6634 9.41279 33.5325C4.04472 29.4385 2.61425 28.2474 1.49162 27.3127C1.03282 26.9307 0.625437 26.5915 0.0217014 26.1145V24.75C0.0217014 23.2424 1.18232 22.0217 2.61111 22.0217ZM18.2778 10.9783C15.3852 10.9783 13.0339 13.4564 13.0339 16.5V19.2283H5.24392V2.75C5.24392 1.2424 6.40454 0.0217014 7.83333 0.0217014H33.9444C35.3732 0.0217014 36.5339 1.2424 36.5339 2.75V10.9783H18.2778Z" stroke="#3F3E3E" stroke-opacity="0.8" stroke-width="0.0434028"/>
</svg>


