<svg width="47" height="44" viewBox="0 0 47 44" fill="none" xmlns="http://www.w3.org/2000/svg">
<path d="M45.6596 31.092L35.3782 26.9669C34.939 26.7916 34.4509 26.7547 33.9873 26.8617C33.5237 26.9686 33.1098 27.2136 32.8079 27.5599L28.2547 32.7678C21.1088 29.6136 15.3581 24.2299 11.9889 17.5402L17.5519 13.2777C17.9224 12.9955 18.1847 12.608 18.299 12.1738C18.4133 11.7396 18.3734 11.2824 18.1853 10.8714L13.7789 1.2462C13.5725 0.803102 13.2074 0.44133 12.7465 0.223263C12.2857 0.00519514 11.758 -0.0554998 11.2545 0.0516436L1.70745 2.11418C1.22199 2.21913 0.788866 2.47502 0.478761 2.84009C0.168657 3.20517 -0.00011183 3.65786 5.5595e-08 4.12429C5.5595e-08 26.1677 19.0849 44 42.5945 44C43.0929 44.0003 43.5767 43.8424 43.9668 43.5521C44.357 43.2617 44.6304 42.8561 44.7426 42.4015L46.9457 33.4639C47.0594 32.9902 46.9932 32.4942 46.7585 32.0613C46.5238 31.6284 46.1352 31.2856 45.6596 31.092Z" fill="black"/>
<path d="M32.8263 27.5759L32.8262 27.5759L28.273 32.7838L28.2612 32.7974L28.2448 32.7901C21.094 29.6338 15.3389 24.2462 11.9671 17.5512L11.958 17.5332L11.974 17.5209L17.537 13.2583L17.5371 13.2582C17.9035 12.9792 18.1625 12.5963 18.2754 12.1676C18.3882 11.7389 18.3488 11.2875 18.1631 10.8815L13.7568 1.25651C13.7568 1.25647 13.7568 1.25644 13.7568 1.25641C13.5528 0.818759 13.192 0.46106 12.7361 0.245331C12.2802 0.0295826 11.758 -0.0305147 11.2596 0.0755128C11.2596 0.0755162 11.2596 0.0755196 11.2596 0.075523L1.71261 2.13804C1.71261 2.13804 1.71261 2.13804 1.71261 2.13804C1.23219 2.2419 0.803862 2.49508 0.497369 2.8559C0.190904 3.21669 0.0243037 3.66382 0.0244141 4.12429L0.0244141 4.12429C0.0244141 26.1527 19.0968 43.9756 42.5945 43.9756C43.0878 43.9759 43.5664 43.8196 43.9522 43.5325C44.338 43.2454 44.6081 42.8446 44.7189 42.3957L46.922 33.4582L32.8263 27.5759ZM32.8263 27.5759C33.1247 27.2337 33.534 26.9913 33.9928 26.8855C34.4515 26.7796 34.9346 26.8162 35.3692 26.9896L45.6504 31.1146M32.8263 27.5759L45.6504 31.1146M45.6504 31.1146C46.121 31.3062 46.5051 31.6452 46.737 32.0729C46.9689 32.5006 47.0343 32.9903 46.922 33.458L45.6504 31.1146Z" stroke="#3F3E3E" stroke-opacity="0.8" stroke-width="0.0488281"/>
</svg>

